<svg width="47" height="47" fill="none" xmlns="http://www.w3.org/2000/svg"><path fill="#fff" d="M0 0h47v47H0z"/><path d="M18.657 12C14.986 12 12 15.125 12 18.965v10.072C12 32.877 14.986 36 18.657 36h9.686C32.014 36 35 32.877 35 29.037V18.965C35 15.125 32.014 12 28.343 12h-9.686zm0 2.063h9.686c2.613 0 4.686 2.169 4.686 4.902v10.072c0 2.733-2.073 4.9-4.686 4.9h-9.686c-2.613 0-4.685-2.167-4.685-4.9V18.965c0-2.733 2.072-4.902 4.685-4.902zm11.016 2.063c-.762 0-1.38.646-1.38 1.443s.618 1.443 1.38 1.443c.762 0 1.379-.646 1.379-1.443s-.617-1.443-1.38-1.443zM23.5 17.821c-3.251 0-5.907 2.778-5.907 6.179 0 3.4 2.656 6.18 5.907 6.18s5.909-2.78 5.909-6.18-2.658-6.18-5.909-6.18zm0 2.063c2.185 0 3.937 1.83 3.937 4.116 0 2.286-1.752 4.116-3.937 4.116-2.185 0-3.935-1.83-3.935-4.116 0-2.286 1.75-4.116 3.935-4.116z" fill="#575757"/></svg>