<svg width="47" height="47" fill="none" xmlns="http://www.w3.org/2000/svg"><path fill="#fff" d="M0 0h47v47H0z"/><path d="M34 17.13a8.977 8.977 0 01-2.592.716 4.554 4.554 0 001.984-2.514 8.984 8.984 0 01-2.866 1.103A4.492 4.492 0 0027.232 15c-2.493 0-4.513 2.034-4.513 4.544 0 .356.04.703.117 1.036-3.751-.19-7.077-2-9.303-4.748a4.543 4.543 0 00-.611 2.284 4.55 4.55 0 002.008 3.782 4.466 4.466 0 01-2.045-.568v.057a4.54 4.54 0 003.62 4.456 4.488 4.488 0 01-2.038.078 4.523 4.523 0 004.216 3.156 9.02 9.02 0 01-5.606 1.945A9.19 9.19 0 0112 30.959 12.716 12.716 0 0018.92 33c8.3 0 12.84-6.924 12.84-12.93 0-.196-.005-.392-.013-.587a9.225 9.225 0 002.252-2.352" fill="#575757"/></svg>